# xmcd CD database file
#
# Track frame offsets:
#	150
#	14045
#	33270
#	57542
#	68880
#	84827
#	105702
#	118367
#	133987
#	153157
#
# Disc length: 2304 seconds
#
# Revision: 0
# Processed by: cddbd v1.5.2PL0 Copyright (c) Steve Scherf et al.
# Submitted via: CDex 1.51
#
DISCID=8a08fe0a
DTITLE=Ricky Lynn Gregg - Ricky Lynn Gregg The Club Remixes
DYEAR=1993
DGENRE=Country
TTITLE0=If I Had A Cheatin' Heart(Dance Remix)
TTITLE1=If I Had A Cheatin' Heart(Extended Dance Remix)
TTITLE2=If I Had A Cheatin' Heart(Club Mix)
TTITLE3=Three Nickles And A Dime(Dance Remix)
TTITLE4=Three Nickles And A Dime(Extended Dance Remix)
TTITLE5=Three Nickles And A Dime(Club Mix)
TTITLE6=Bring On The Neon(Dance Mix)
TTITLE7=Bring On The Neon(Extended Dance Mix)
TTITLE8=Bring On The Neon(Club Mix)
TTITLE9=Can You Feel It(Extended Dance Remix)
EXTD=YEAR: 1993
EXTT0=
EXTT1=
EXTT2=
EXTT3=
EXTT4=
EXTT5=
EXTT6=
EXTT7=
EXTT8=
EXTT9=
PLAYORDER=
